<svg width="65" height="68" viewBox="0 0 65 68" fill="none" xmlns="http://www.w3.org/2000/svg">
<path d="M40.8097 33.6259C57.7965 34.9255 64.7583 41.0519 64.7583 49.7773C64.7583 59.8952 55.1975 67.5067 32.734 67.5067C11.9414 67.5067 2.38056 58.41 0.245605 48.8491L9.52801 45.7859C11.106 52.6549 17.6965 58.5028 32.5484 58.5028C47.6787 58.5028 54.6405 53.6759 54.6405 46.25C54.6405 38.9169 48.3285 34.0901 33.291 34.0901H21.4095V33.1618H33.291C47.7715 33.1618 53.6194 28.5206 53.6194 21.466C53.6194 14.3185 47.0289 9.67734 32.5484 9.67734C18.4391 9.67734 12.4056 15.4324 11.0132 21.7445L1.73079 18.5884C3.86574 9.67734 12.8697 0.673401 32.734 0.673401C54.362 0.673401 63.2731 8.19215 63.2731 18.1243C63.2731 26.6641 56.8683 32.3264 40.8097 33.6259Z" fill="#27292F"/>
</svg>
