<svg width="40" height="64" viewBox="0 0 40 64" fill="none" xmlns="http://www.w3.org/2000/svg">
<path d="M0 38.6041C0 52.64 7.5093 59 20.9665 59C33.5316 59 40 53.0055 40 43.9407C40 36.3379 36.2825 33.1214 29.5911 31.7324V30.2703C36.2825 29.2469 39.2565 25.5917 39.2565 19.5972C39.2565 11.9945 33.5316 6 20.9665 6C7.5093 6 0.743495 12.36 0.743495 23.4717H5.65056C5.65056 14.6262 10.1859 10.0938 20.9665 10.0938C30.855 10.0938 34.3494 14.3338 34.3494 20.3283C34.3494 26.2497 31.0781 28.9545 24.3866 28.9545H17.1004V33.0483H24.3866C31.0781 33.0483 35.0929 35.8262 35.0929 43.2097C35.0929 50.6662 30.855 54.9062 20.9665 54.9062C10.1859 54.9062 4.90706 50.3738 4.90706 38.6041H0Z" fill="#27292F"/>
</svg>
