<svg width="111" height="98" viewBox="0 0 111 98" fill="none" xmlns="http://www.w3.org/2000/svg">
<rect width="97.5" height="97.5" rx="48.75" fill="#27292F"/>
<path d="M45.6972 47.8184V50.7H35.1997V61.1975H32.318V50.7H21.8205V47.8184H32.318V37.3209H35.1997V47.8184H45.6972ZM52.991 42.2094C59.9379 39.3792 62.2535 32.6896 62.4079 25.7427H69.4577V62.0209H66.0614V29.3448L66.576 26.7719H65.5469C65.0323 34.5421 62.6137 42.2094 54.0202 45.0396L52.991 42.2094ZM77.2749 49.2077H80.6712C80.6712 55.9488 84.5306 59.6538 91.992 59.6538C98.836 59.6538 103.107 55.64 103.107 48.5388C103.107 42.6211 100.328 38.9161 94.4106 38.9161C89.4706 38.9161 86.5374 41.3861 84.8393 44.0105L80.2081 41.7463V25.7427H103.982V28.6244H83.6043V38.1442L83.0897 40.7171L83.9645 41.2317C85.9199 38.6073 89.7279 36.0344 94.9251 36.0344C102.232 36.0344 106.503 41.0259 106.503 48.8475C106.503 57.2867 100.688 62.5355 91.992 62.5355C82.6781 62.5355 77.2749 57.544 77.2749 49.2077Z" fill="white"/>
</svg>
