<svg width="344" height="138" viewBox="0 0 344 138" fill="none" xmlns="http://www.w3.org/2000/svg">
<path d="M15.8216 10.1816C19.1873 10.6142 20.9708 12.6333 20.9708 15.2868C20.9708 18.3153 18.5832 20.4786 14.3832 20.4786H0V0.28843H13.7504C17.9215 0.28843 20.1078 2.39397 20.1078 5.33596C20.1078 7.75878 18.6407 9.60473 15.8216 10.1816ZM13.1175 3.08621H3.13555V10.0951H13.1175C15.9366 10.0951 17.3462 8.65291 17.3462 6.60506C17.3462 4.52836 15.9366 3.08621 13.1175 3.08621ZM3.13555 17.6808H13.5778C16.5695 17.6808 18.0941 16.1809 18.0941 14.0177C18.0941 11.8833 16.5695 10.3835 13.5778 10.3835H3.13555V17.6808Z" fill="#27292F"/>
<path d="M28.2067 17.6808H42.3885V3.08621H29.7888V10.6142C29.7888 13.9023 29.2998 15.9502 28.2067 17.6808ZM26.6533 10.6142V0.28843H45.5241V17.6808H48.5158V24.5166H45.3803V20.4786H25.8766V24.5166H22.741V17.6808H24.9848C26.2218 15.806 26.6533 13.6716 26.6533 10.6142Z" fill="#27292F"/>
<path d="M62.977 0C71.233 0 75.6631 4.32646 75.6631 10.3835C75.6631 16.4405 71.233 20.767 62.977 20.767C54.6923 20.767 50.2622 16.4405 50.2622 10.3835C50.2622 4.32646 54.6923 0 62.977 0ZM62.977 17.9692C69.3057 17.9692 72.5275 14.883 72.5275 10.3835C72.5275 5.88398 69.3057 2.79777 62.977 2.79777C56.6196 2.79777 53.3978 5.88398 53.3978 10.3835C53.3978 14.883 56.6196 17.9692 62.977 17.9692Z" fill="#27292F"/>
<path d="M94.6314 0.28843H98.4286L88.8781 10.3835L98.4286 20.4786H94.6314L86.8069 12.1718L78.9824 20.4786H75.1853L84.7357 10.3835L75.1853 0.28843H78.9824L86.8069 8.56638L94.6314 0.28843Z" fill="#27292F"/>
<path d="M118.799 10.2393V0.28843H121.934V20.4786H118.799V10.5277H104.099V20.4786H100.964V0.28843H104.099V10.2393H118.799Z" fill="#27292F"/>
<path d="M138.124 0C146.38 0 150.81 4.32646 150.81 10.3835C150.81 16.4405 146.38 20.767 138.124 20.767C129.839 20.767 125.409 16.4405 125.409 10.3835C125.409 4.32646 129.839 0 138.124 0ZM138.124 17.9692C144.452 17.9692 147.674 14.883 147.674 10.3835C147.674 5.88398 144.452 2.79777 138.124 2.79777C131.766 2.79777 128.545 5.88398 128.545 10.3835C128.545 14.883 131.766 17.9692 138.124 17.9692Z" fill="#27292F"/>
<path d="M170.132 10.1816C173.498 10.6142 175.282 12.6333 175.282 15.2868C175.282 18.3153 172.894 20.4786 168.694 20.4786H154.311V0.28843H168.061C172.232 0.28843 174.419 2.39397 174.419 5.33596C174.419 7.75878 172.952 9.60473 170.132 10.1816ZM167.428 3.08621H157.446V10.0951H167.428C170.247 10.0951 171.657 8.65291 171.657 6.60506C171.657 4.52836 170.247 3.08621 167.428 3.08621ZM157.446 17.6808H167.889C170.88 17.6808 172.405 16.1809 172.405 14.0177C172.405 11.8833 170.88 10.3835 167.889 10.3835H157.446V17.6808Z" fill="#27292F"/>
<path d="M181.568 12.8928V0.28843H200.18V20.4786H197.045V3.08621H184.704V12.8928C184.704 17.8827 182.891 20.5074 177.8 20.5074C177.541 20.5074 177.224 20.5074 176.937 20.4786V17.6808C180.475 17.6808 181.568 16.3828 181.568 12.8928Z" fill="#27292F"/>
<path d="M221.365 12.4025H213.339L207.01 20.4786H203.616L210.031 12.2583C205.831 11.6526 203.904 9.37399 203.904 6.34547C203.904 2.82662 206.435 0.28843 212.102 0.28843H224.5V20.4786H221.365V12.4025ZM212.505 12.1141H221.365V3.08621H212.505C208.88 3.08621 207.039 4.98985 207.039 7.61456C207.039 10.2393 208.88 12.1141 212.505 12.1141Z" fill="#27292F"/>
<path d="M249.117 0C257.402 0 261.803 4.32646 261.803 10.3835C261.803 16.4405 257.402 20.767 249.117 20.767C240.89 20.767 236.489 16.4982 236.431 10.5277H232.088V20.4786H228.952V0.28843H232.088V10.2393H236.431C236.489 4.26877 240.89 0 249.117 0ZM249.117 17.9692C255.475 17.9692 258.668 14.883 258.668 10.3835C258.668 5.88398 255.475 2.79777 249.117 2.79777C242.76 2.79777 239.567 5.88398 239.567 10.3835C239.567 14.883 242.76 17.9692 249.117 17.9692Z" fill="#27292F"/>
<path d="M291.049 0.28843H294.185V17.6808H297.177V24.5166H294.041V20.4786H265.303V0.28843H268.439V17.6808H279.6V0.28843H279.888V17.6808H291.049V0.28843Z" fill="#27292F"/>
<path d="M318.001 20.4786V1.32678L302.87 20.4786H300.166V0.28843H303.301V19.4114L318.404 0.28843H321.137V20.4786H318.001Z" fill="#27292F"/>
<path d="M344 0.28843V3.08621H328.725V10.2393H343.137V10.5277H328.725V17.6808H344V20.4786H325.589V0.28843H344Z" fill="#27292F"/>
<path d="M1.03581 59.5562V39.3661H22.0066V59.5562H18.871V42.1639H4.17136V59.5562H1.03581Z" fill="#27292F"/>
<path d="M26.3777 39.3661H37.0789C43.5513 39.3661 46.1116 42.0485 46.1116 45.8269C46.1116 49.6054 43.4075 52.3166 36.82 52.3166H29.5133V59.5562H26.3777V39.3661ZM29.5133 52.0282H36.7912C41.1349 52.0282 43.0048 49.9803 43.0048 47.096C43.0048 44.2117 41.1349 42.1639 36.7912 42.1639H29.5133V52.0282Z" fill="#27292F"/>
<path d="M61.1782 39.0777C69.4342 39.0777 73.8642 43.4041 73.8642 49.4612C73.8642 55.5182 69.4342 59.8447 61.1782 59.8447C52.8935 59.8447 48.4634 55.5182 48.4634 49.4612C48.4634 43.4041 52.8935 39.0777 61.1782 39.0777ZM61.1782 57.0469C67.5069 57.0469 70.7287 53.9607 70.7287 49.4612C70.7287 44.9616 67.5069 41.8754 61.1782 41.8754C54.8208 41.8754 51.599 44.9616 51.599 49.4612C51.599 53.9607 54.8208 57.0469 61.1782 57.0469Z" fill="#27292F"/>
<path d="M95.7758 39.3661V42.1639H80.5008V49.3169H94.9128V49.6054H80.5008V56.7585H95.7758V59.5562H77.3652V39.3661H95.7758Z" fill="#27292F"/>
<path d="M117.172 39.3661H120.653L111.39 49.4612L120.653 59.5562H117.172L108.024 49.6054H102.328V59.5562H99.1929V39.3661H102.328V49.3169H108.024L117.172 39.3661Z" fill="#27292F"/>
<path d="M121.263 39.3661H142.55V42.1639H133.489V59.5562H130.353V42.1639H121.263V39.3661Z" fill="#27292F"/>
<path d="M148.54 46.6057H155.847C162.434 46.6057 165.139 49.3169 165.139 53.0954C165.139 56.845 162.578 59.5562 156.106 59.5562H145.405V39.3661H148.54V46.6057ZM148.54 56.7585H155.818C160.162 56.7585 162.032 54.7106 162.032 51.8263C162.032 48.942 160.162 46.8941 155.818 46.8941H148.54V56.7585ZM170.777 59.5562H167.641V39.3661H170.777V59.5562Z" fill="#27292F"/>
<path d="M188.219 56.7585H202.401V42.1639H189.802V49.6919C189.802 52.98 189.312 55.0279 188.219 56.7585ZM186.666 49.6919V39.3661H205.537V56.7585H208.528V63.5942H205.393V59.5562H185.889V63.5942H182.754V56.7585H184.997C186.234 54.8837 186.666 52.7493 186.666 49.6919Z" fill="#27292F"/>
<path d="M214.829 51.9705V39.3661H233.44V59.5562H230.305V42.1639H217.964V51.9705C217.964 56.9604 216.152 59.5851 211.06 59.5851C210.801 59.5851 210.485 59.5851 210.197 59.5562V56.7585C213.735 56.7585 214.829 55.4605 214.829 51.9705Z" fill="#27292F"/>
<path d="M254.625 51.4802H246.599L240.271 59.5562H236.876L243.291 51.336C239.091 50.7303 237.164 48.4517 237.164 45.4231C237.164 41.9043 239.695 39.3661 245.362 39.3661H257.761V59.5562H254.625V51.4802ZM245.765 51.1917H254.625V42.1639H245.765C242.141 42.1639 240.299 44.0675 240.299 46.6922C240.299 49.3169 242.141 51.1917 245.765 51.1917Z" fill="#27292F"/>
<path d="M83.3374 98.6339H80.0868L77.4116 93.3845H65.0707L62.3954 98.6339H59.1736L69.2994 78.4438H73.2116L83.3374 98.6339ZM71.2555 81.4146L65.2146 93.096H77.2677L71.2555 81.4146Z" fill="#27292F"/>
<path d="M107.604 98.6339V79.6263L98.3992 95.7496H98.0252L88.8487 79.6263V98.6339H85.7132V78.4438H88.5035L98.2266 95.49L107.95 78.4438H110.74V98.6339H107.604Z" fill="#27292F"/>
<path d="M118.374 87.039H127.406C133.16 87.039 135.547 89.4618 135.547 92.8364C135.547 96.2111 133.217 98.6339 127.55 98.6339H115.238V78.4438H133.821V81.2415H118.374V87.039ZM118.374 95.8361H127.032C130.772 95.8361 132.44 94.0479 132.44 91.5673C132.44 89.0868 130.772 87.3274 127.032 87.3274H118.374V95.8361Z" fill="#27292F"/>
<path d="M156.502 98.6339V79.4821L141.371 98.6339H138.667V78.4438H141.803V97.5667L156.905 78.4438H159.638V98.6339H156.502Z" fill="#27292F"/>
<path d="M181.926 78.4438H185.061V95.8361H188.053V102.672H184.946V98.6339H164.091V78.4438H167.226V95.8361H181.926V78.4438Z" fill="#27292F"/>
<path d="M208.922 98.6339V79.4821L193.791 98.6339H191.087V78.4438H194.223V97.5667L209.325 78.4438H212.058V98.6339H208.922Z" fill="#27292F"/>
<path d="M228.247 78.1553C236.503 78.1553 240.934 82.4818 240.934 88.5388C240.934 94.5959 236.503 98.9223 228.247 98.9223C219.963 98.9223 215.533 94.5959 215.533 88.5388C215.533 82.4818 219.963 78.1553 228.247 78.1553ZM228.247 96.1245C234.576 96.1245 237.798 93.0383 237.798 88.5388C237.798 84.0393 234.576 80.9531 228.247 80.9531C221.89 80.9531 218.668 84.0393 218.668 88.5388C218.668 93.0383 221.89 96.1245 228.247 96.1245Z" fill="#27292F"/>
<path d="M255.052 88.2504C260.747 88.6542 262.703 90.3559 262.703 93.096C262.703 96.2399 259.741 98.9223 252.232 98.9223C246.508 98.9223 243.027 96.9033 241.589 94.2786L244.322 92.7788C245.213 94.567 247.659 96.1245 252.117 96.1245C257.497 96.1245 259.568 94.394 259.568 92.0865C259.568 89.8079 257.698 88.3946 252.232 88.3946H248.637V88.1062H252.175C257.18 88.1062 259.05 86.8083 259.05 84.7027C259.05 82.5683 257.18 80.9531 252.175 80.9531C248.119 80.9531 245.875 82.2799 245.012 83.9528L242.308 82.4241C243.746 79.9724 246.997 78.1553 252.29 78.1553C259.424 78.1553 262.186 80.6935 262.186 83.6932C262.186 86.2602 260.345 87.8754 255.052 88.2504Z" fill="#27292F"/>
<path d="M283.592 88.3946V78.4438H286.727V98.6339H283.592V88.683H268.892V98.6339H265.757V78.4438H268.892V88.3946H283.592Z" fill="#27292F"/>
<path d="M294.316 85.6834H301.622C308.21 85.6834 310.914 88.3946 310.914 92.173C310.914 95.9226 308.354 98.6339 301.881 98.6339H291.18V78.4438H294.316V85.6834ZM294.316 95.8361H301.594C305.937 95.8361 307.807 93.7883 307.807 90.904C307.807 88.0197 305.937 85.9718 301.594 85.9718H294.316V95.8361ZM316.552 98.6339H313.417V78.4438H316.552V98.6339Z" fill="#27292F"/>
<path d="M338.532 78.4438H342.329L332.779 88.5388L342.329 98.6339H338.532L330.708 90.3271L322.883 98.6339H319.086L328.636 88.5388L319.086 78.4438H322.883L330.708 86.7217L338.532 78.4438Z" fill="#27292F"/>
<path d="M17.709 127.328C23.4048 127.732 25.3609 129.434 25.3609 132.174C25.3609 135.318 22.398 138 14.8899 138C9.16537 138 5.68463 135.981 4.2463 133.356L6.97912 131.856C7.87088 133.645 10.316 135.202 14.7748 135.202C20.1542 135.202 22.2254 133.472 22.2254 131.164C22.2254 128.886 20.3555 127.472 14.8899 127.472H11.2941V127.184H14.8324C19.8377 127.184 21.7076 125.886 21.7076 123.78C21.7076 121.646 19.8377 120.031 14.8324 120.031C10.7763 120.031 8.53251 121.358 7.66952 123.03L4.96547 121.502C6.40379 119.05 9.65441 117.233 14.9474 117.233C22.0815 117.233 24.8431 119.771 24.8431 122.771C24.8431 125.338 23.0021 126.953 17.709 127.328Z" fill="#27292F"/>
<path d="M50.5066 137.712H47.256L44.5807 132.462H32.2399L29.5646 137.712H26.3428L36.4686 117.521H40.3808L50.5066 137.712ZM38.4247 120.492L32.3838 132.174H44.4369L38.4247 120.492Z" fill="#27292F"/>
<path d="M70.8614 117.521H74.3421L65.0793 127.617L74.3421 137.712H70.8614L61.7137 127.761H56.0179V137.712H52.8823V117.521H56.0179V127.472H61.7137L70.8614 117.521Z" fill="#27292F"/>
<path d="M99.5557 137.712H96.3051L93.6299 132.462H81.289L78.6137 137.712H75.3919L85.5177 117.521H89.4299L99.5557 137.712ZM87.4738 120.492L81.4329 132.174H93.486L87.4738 120.492Z" fill="#27292F"/>
<path d="M113.841 127.328C119.537 127.732 121.493 129.434 121.493 132.174C121.493 135.318 118.53 138 111.022 138C105.297 138 101.816 135.981 100.378 133.356L103.111 131.856C104.003 133.645 106.448 135.202 110.907 135.202C116.286 135.202 118.357 133.472 118.357 131.164C118.357 128.886 116.487 127.472 111.022 127.472H107.426V127.184H110.964C115.97 127.184 117.839 125.886 117.839 123.78C117.839 121.646 115.97 120.031 110.964 120.031C106.908 120.031 104.664 121.358 103.801 123.03L101.097 121.502C102.536 119.05 105.786 117.233 111.079 117.233C118.213 117.233 120.975 119.771 120.975 122.771C120.975 125.338 119.134 126.953 113.841 127.328Z" fill="#27292F"/>
<path d="M123.805 117.521H126.94V124.588C126.94 127.674 128.637 129.405 133.326 129.405C136.059 129.405 138.964 128.655 140.604 127.328V117.521H143.711V137.712H140.604V127.818C139.08 130.414 135.743 131.943 131.859 131.943C126.25 131.943 123.805 129.232 123.805 124.703V117.521Z" fill="#27292F"/>
<path d="M165.838 137.712V118.56L150.707 137.712H148.003V117.521H151.138V136.644L166.241 117.521H168.974V137.712H165.838Z" fill="#27292F"/>
<path d="M191.405 117.521H194.886L185.623 127.617L194.886 137.712H191.405L182.258 127.761H176.562V137.712H173.426V117.521H176.562V127.472H182.258L191.405 117.521Z" fill="#27292F"/>
<path d="M207.159 117.233C215.415 117.233 219.845 121.559 219.845 127.617C219.845 133.674 215.415 138 207.159 138C198.875 138 194.444 133.674 194.444 127.617C194.444 121.559 198.875 117.233 207.159 117.233ZM207.159 135.202C213.488 135.202 216.71 132.116 216.71 127.617C216.71 123.117 213.488 120.031 207.159 120.031C200.802 120.031 197.58 123.117 197.58 127.617C197.58 132.116 200.802 135.202 207.159 135.202Z" fill="#27292F"/>
<path d="M239.168 127.415C242.533 127.847 244.317 129.866 244.317 132.52C244.317 135.548 241.929 137.712 237.73 137.712H223.346V117.521H237.097C241.268 117.521 243.454 119.627 243.454 122.569C243.454 124.992 241.987 126.838 239.168 127.415ZM236.464 120.319H226.482V127.328H236.464C239.283 127.328 240.692 125.886 240.692 123.838C240.692 121.761 239.283 120.319 236.464 120.319ZM226.482 134.914H236.924C239.916 134.914 241.44 133.414 241.44 131.251C241.44 129.116 239.916 127.617 236.924 127.617H226.482V134.914Z" fill="#27292F"/>
</svg>
