<svg width="625" height="126" viewBox="0 0 625 126" fill="none" xmlns="http://www.w3.org/2000/svg">
<path d="M19.6591 0V108.54H111.639V126H0.0390625V0H19.6591Z" fill="#27292F"/>
<path d="M271.17 126H250.83L234.09 93.24H156.87L140.13 126H119.97L183.33 0H207.81L271.17 126ZM195.57 18.54L157.77 91.44H233.19L195.57 18.54Z" fill="#27292F"/>
<path d="M385.035 61.74C406.095 64.44 417.255 77.04 417.255 93.6C417.255 112.5 402.315 126 376.035 126H286.035V0H372.075C398.175 0 411.855 13.14 411.855 31.5C411.855 46.62 402.675 58.14 385.035 61.74ZM368.115 17.46H305.655V61.2H368.115C385.755 61.2 394.575 52.2 394.575 39.42C394.575 26.46 385.755 17.46 368.115 17.46ZM305.655 108.54H370.995C389.715 108.54 399.255 99.18 399.255 85.68C399.255 72.36 389.715 63 370.995 63H305.655V108.54Z" fill="#27292F"/>
<path d="M575.974 126H555.634L538.894 93.24H461.674L444.934 126H424.774L488.134 0H512.614L575.974 126ZM500.374 18.54L462.574 91.44H537.994L500.374 18.54Z" fill="#27292F"/>
<path d="M624.999 116C624.999 121.523 620.522 126 614.999 126C609.476 126 604.999 121.523 604.999 116C604.999 110.477 609.476 106 614.999 106C620.522 106 624.999 110.477 624.999 116Z" fill="#27292F"/>
</svg>
