<svg width="455" height="100" viewBox="0 0 455 100" fill="none" xmlns="http://www.w3.org/2000/svg">
<path d="M15.554 0.599993V86.226H88.116V100H0.0760002V0.599993H15.554ZM213.968 100H197.922L184.716 74.156H123.798L110.592 100H94.6879L144.672 0.599993H163.984L213.968 100ZM154.328 15.226L124.508 72.736H184.006L154.328 15.226ZM303.795 49.306C320.409 51.436 329.213 61.376 329.213 74.44C329.213 89.35 317.427 100 296.695 100H225.695V0.599993H293.571C314.161 0.599993 324.953 10.966 324.953 25.45C324.953 37.378 317.711 46.466 303.795 49.306ZM290.447 14.374H241.173V48.88H290.447C304.363 48.88 311.321 41.78 311.321 31.698C311.321 21.474 304.363 14.374 290.447 14.374ZM241.173 86.226H292.719C307.487 86.226 315.013 78.842 315.013 68.192C315.013 57.684 307.487 50.3 292.719 50.3H241.173V86.226ZM454.425 100H438.379L425.173 74.156H364.255L351.049 100H335.145L385.129 0.599993H404.441L454.425 100ZM394.785 15.226L364.965 72.736H424.463L394.785 15.226Z" fill="#F0F2F5"/>
</svg>
