<svg width="344" height="76" viewBox="0 0 344 76" fill="none" xmlns="http://www.w3.org/2000/svg">
<path d="M11.7188 0V64.8298H66.6575V75.2585H0V0H11.7188Z" fill="#27292F"/>
<path d="M161.943 75.2585H149.795L139.796 55.6913H93.6733L83.6746 75.2585H71.6333L109.478 0H124.099L161.943 75.2585ZM116.788 11.0737L94.2108 54.6161H139.258L116.788 11.0737Z" fill="#27292F"/>
<path d="M229.954 36.8766C242.533 38.4893 249.199 46.0152 249.199 55.9063C249.199 67.1951 240.275 75.2585 224.578 75.2585H170.822V0H222.213C237.802 0 245.973 7.84838 245.973 18.8146C245.973 27.8456 240.49 34.7264 229.954 36.8766ZM219.848 10.4287H182.541V36.5541H219.848C230.384 36.5541 235.652 31.1785 235.652 23.5451C235.652 15.8043 230.384 10.4287 219.848 10.4287ZM182.541 64.8298H221.568C232.749 64.8298 238.447 59.2392 238.447 51.1758C238.447 43.2199 232.749 37.6292 221.568 37.6292H182.541V64.8298Z" fill="#27292F"/>
<path d="M344 75.2585H331.851L321.853 55.6913H275.73L265.731 75.2585H253.69L291.534 0H306.156L344 75.2585ZM298.845 11.0737L276.267 54.6161H321.315L298.845 11.0737Z" fill="#27292F"/>
</svg>
