<svg width="671" height="259" viewBox="0 0 671 259" fill="none" xmlns="http://www.w3.org/2000/svg">
<path d="M190.977 177.192H157.422V78.5931H133.863V177.192H24.9877L7.13934 180.764V173.619C91.3835 131.822 127.437 71.4483 137.789 3.57241H114.229C106.019 75.0207 56.4008 127.892 0 155.4V197.197H133.863V255.428H157.422V197.197H190.977V177.192Z" fill="#27292F"/>
<path d="M332.227 0C262.976 0 227.636 56.0869 227.636 129.321C227.636 202.913 262.976 259 332.227 259C401.122 259 436.462 202.913 436.462 129.321C436.462 56.0869 401.122 0 332.227 0ZM332.227 20.0055C355.43 20.0055 373.279 28.2221 386.486 42.869L264.404 196.126C255.479 177.906 251.196 155.043 251.196 129.321C251.196 66.8042 277.611 20.0055 332.227 20.0055ZM332.227 238.994C309.025 238.994 290.819 230.421 277.611 215.774L399.694 62.5172C408.618 80.7365 412.902 103.6 412.902 129.321C412.902 192.196 386.843 238.994 332.227 238.994Z" fill="#27292F"/>
<path d="M671 177.192H637.445V78.5931H613.885V177.192H505.01L487.162 180.764V173.619C571.406 131.822 607.46 71.4483 617.812 3.57241H594.252C586.042 75.0207 536.424 127.892 480.023 155.4V197.197H613.885V255.428H637.445V197.197H671V177.192Z" fill="#27292F"/>
</svg>
