<svg width="74" height="60" viewBox="0 0 74 60" fill="none" xmlns="http://www.w3.org/2000/svg">
<path d="M38.9331 0.39992V0.433254C37.8998 0.433254 36.8664 0.733254 36.0331 1.29992C34.3664 2.46659 34.1664 4.39992 35.6664 5.63325L45.1998 13.3333L16.0998 13.4333H16.0664C13.6664 13.4333 11.3331 14.9999 10.8664 16.9999C10.3331 19.0333 11.9998 20.7333 14.5331 20.7333L29.2998 20.6999L2.86642 40.9999C0.333088 42.8999 -0.433579 46.0666 1.13309 48.0666C2.73309 50.0999 6.09975 50.0999 8.66642 48.0666L22.9998 36.2999C22.9998 36.2999 22.7664 37.8999 22.7998 38.8333C22.7998 39.7999 23.1331 41.6666 23.5664 43.0999C24.5331 46.1999 26.1664 49.0332 28.4331 51.5332C30.7664 54.0999 33.6664 56.1666 36.9998 57.6333C40.4331 59.1999 44.2331 59.9999 48.1331 59.9999C51.9998 59.9999 55.8331 59.1666 59.2998 57.5999C62.6331 56.1333 65.4998 54.0333 67.8331 51.4666C70.0998 48.9666 71.7331 46.0999 72.6998 43.0333C73.1664 41.4666 73.4664 39.8999 73.6664 38.3333C73.6664 36.7666 73.6664 35.1999 73.4664 33.6333C73.0331 30.5999 71.9998 27.7333 70.3331 25.1333C68.8664 22.7666 66.9998 20.6666 64.6998 18.8999L41.7331 1.26659C40.915 0.688719 39.9346 0.385276 38.9331 0.39992ZM48.1331 20.6999C51.9998 20.6999 55.6331 21.9666 58.5331 24.2999C59.9998 25.4999 61.1664 26.8999 61.9998 28.4666C62.8998 29.9999 63.4664 31.8333 63.6664 33.6999C63.7998 35.5666 63.5331 37.4333 62.8998 39.2333C62.2331 41.0333 61.1664 42.6999 59.7331 44.1999C56.7664 47.1999 52.6331 48.9333 48.1331 48.9333C43.6664 48.9333 39.4998 47.2333 36.5331 44.2333C35.0998 42.7666 34.0331 41.0666 33.3664 39.2666C32.7242 37.497 32.474 35.609 32.6331 33.7333C32.7998 31.8666 33.3664 30.0999 34.2331 28.4999C35.0998 26.9333 36.2998 25.5333 37.7664 24.3333C40.6331 21.9666 44.2998 20.6999 48.1331 20.6999ZM48.4664 25.3666C45.8664 25.3666 43.4664 26.2999 41.6998 27.7999C39.8998 29.3333 38.6664 31.4666 38.5664 33.9333C38.4331 36.4333 39.4331 38.7666 41.1998 40.4999C42.9998 42.2666 45.5998 43.3333 48.4664 43.3333C51.3331 43.3333 53.8998 42.2666 55.7331 40.4999C57.4998 38.7666 58.4998 36.4333 58.3664 33.9333C58.2331 31.4666 56.9998 29.3333 55.2331 27.7999C53.4664 26.2999 51.0664 25.3666 48.4664 25.3666Z" fill="#27292F"/>
</svg>
