<svg width="80" height="80" viewBox="0 0 80 80" fill="none" xmlns="http://www.w3.org/2000/svg">
<g clip-path="url(#clip0_3442_2012)">
<path d="M28.4667 35.7667C28.1333 34.7333 27.8333 33.7333 27.5 32.7C27.1667 31.6667 26.8667 30.7 26.6 29.7333C26.3333 28.8 26.1 27.9333 25.8667 27.1333H25.8C25.5 28.5667 25.1333 30 24.6667 31.4333C24.1667 33.0333 23.6667 34.7 23.1333 36.3667C22.7 38.0667 22.1667 39.6333 21.6667 41.0333H30.1333C29.9333 40.3333 29.6667 39.5 29.3667 38.6333C29.0667 37.7333 28.7667 36.7667 28.4667 35.7667ZM57.0667 34.8C55.2333 34.7 53.5 35.6667 52.6333 37.3333C52.2333 38.1 52 38.9 51.9 39.7333H58.93C59.7967 39.7333 60.43 39.7333 60.83 39.7C61.0967 39.6667 61.3633 39.6 61.5967 39.4333V39.1C61.5967 38.6667 61.5267 38.2667 61.3933 37.8667C60.8 36 59.0333 34.7333 57.0667 34.8ZM65.8333 0.00390625H14.1667C6.33333 0.00390625 0 6.33724 0 14.1706V65.8255C0 73.6589 6.33333 79.9922 14.1667 79.9922H65.8333C73.6667 79.9922 80 73.6589 80 65.8255V14.1706C80 6.33724 73.6667 0.00390625 65.8333 0.00390625ZM42.3667 56.0367H35.4C35.1667 56.07 34.9333 55.9 34.8667 55.67L32.1333 47.67H19.7333L17.2 55.5367C17.1333 55.8367 16.8667 56.0367 16.5667 56.0033H10.3C9.93333 56.0033 9.83333 55.8033 9.93333 55.4033L20.6667 24.6333C20.7667 24.3 20.8667 24 21 23.6C21.1333 22.9 21.2 22.1667 21.2 21.4333C21.1667 21.2667 21.3 21.1 21.4667 21.0667H30.1C30.3333 21.0667 30.5 21.1667 30.5333 21.3333L42.7 55.5C42.8 55.8667 42.7033 56.0367 42.3667 56.0367ZM68.5367 42.7333C68.4667 43.3633 68.4333 43.8333 68.4 44.1333C68.3667 44.3667 68.17 44.5667 67.9333 44.5667C67.7333 44.5667 67.3667 44.6 66.8333 44.6367C66.3033 44.7033 65.6667 44.7333 64.9033 44.7333C64.1367 44.7333 63.3333 44.6 62.47 44.6H51.9033C52.0333 45.6333 52.37 46.6667 52.9367 47.5667C53.54 48.47 54.3733 49.1667 55.3667 49.57C56.7 50.1367 58.17 50.4367 59.6367 50.4033C60.8033 50.3667 61.9667 50.27 63.1 50.0367C64.1367 49.9067 65.1333 49.64 66.07 49.27C66.2367 49.14 66.3367 49.2033 66.3367 49.5367V54.64C66.3367 54.77 66.3033 54.9067 66.2667 55.0367C66.1967 55.1367 66.1333 55.2067 66.0367 55.27C64.97 55.7367 63.87 56.07 62.7033 56.27C61.1333 56.57 59.57 56.7033 57.97 56.67C55.4333 56.67 53.3033 56.27 51.57 55.5033C49.9367 54.8 48.5 53.7 47.3667 52.3367C46.3033 51.0367 45.5333 49.57 45.0667 47.97C44.6 46.4 44.37 44.7667 44.37 43.1C44.37 41.3033 44.6367 39.5333 45.2033 37.8C45.7367 36.1333 46.57 34.6 47.7033 33.2333C48.8033 31.9 50.1667 30.8333 51.7333 30.0667C53.3033 29.3 55.1667 29.0333 57.3 29.0333C59.07 29 60.8333 29.3333 62.4667 30.0667C63.8333 30.6667 65.0333 31.5667 65.9667 32.7333C66.8333 33.8667 67.5333 35.1333 67.97 36.5333C68.4 37.8667 68.6 39.2333 68.6 40.6C68.6 41.4 68.5667 42.1 68.5367 42.7333Z" fill="#27292F"/>
</g>
<defs>
<clipPath id="clip0_3442_2012">
<rect width="80" height="80" fill="white"/>
</clipPath>
</defs>
</svg>
