<svg width="80" height="76" viewBox="0 0 80 76" fill="none" xmlns="http://www.w3.org/2000/svg">
<path d="M45.4037 72.6429C46.8236 71.6288 48.8522 70.0059 49.9678 68.9916C69.4141 76.7173 75.7584 61.6176 75.2519 55.8546C74.6909 49.4734 66.7677 31.2624 39.8256 31.262C38.5587 34.2312 34.8542 35.7207 31.7902 33.9459C28.0298 31.7677 28.0298 26.2932 31.7902 24.1152C34.7112 22.4231 38.2137 23.6984 39.632 26.3935C55.9891 26.3104 74.3267 33.2576 79.4545 52.5888C83.153 66.5302 67.6367 82.7826 45.4037 72.6429ZM55.4672 52.9252C58.1734 52.6063 60.5192 50.3476 60.5192 47.287C60.5192 42.9309 55.7684 40.1935 51.9883 42.3717C48.6722 44.2823 48.2659 48.7295 50.768 51.2629C41.7925 67.997 21.747 74.5399 11.1689 68.1887C5.31109 64.6715 -0.729536 52.0806 13.3536 40.4915C12.9478 39.1731 12.3392 36.9417 12.035 35.3188C-13.2848 54.3995 4.9414 84.7601 33.49 72.9368C41.2084 69.7402 49.5772 64.1535 55.467 52.9252M24.5914 59.4034C28.3769 61.5815 33.1344 58.844 33.1344 54.4881C33.1344 50.8527 29.8211 48.3474 26.5245 48.8829C5.58484 9.76946 49.6716 -13.4579 55.3433 23.5537L60.4145 25.0751C56.727 -4.6971 34.4666 -1.97288 27.3353 4.05697C21.9908 8.57618 7.70328 24.4781 22.4645 51.7174C21.0422 54.2784 21.7509 57.769 24.5914 59.4034Z" fill="#27292F"/>
</svg>
