<svg width="46" height="66" viewBox="0 0 46 66" fill="none" xmlns="http://www.w3.org/2000/svg">
<path d="M39.6438 22C41.8852 20.8448 43.6735 18.97 44.7218 16.6766C45.77 14.3832 46.0174 11.8041 45.4241 9.35327C44.8309 6.90243 43.4314 4.72196 41.4504 3.1618C39.4694 1.60164 37.0216 0.752269 34.5 0.75H12C9.47838 0.752269 7.03064 1.60164 5.04961 3.1618C3.06858 4.72196 1.66914 6.90243 1.0759 9.35327C0.482648 11.8041 0.72999 14.3832 1.77823 16.6766C2.82646 18.97 4.61481 20.8448 6.85625 22C4.97874 22.9674 3.41148 24.4438 2.33381 26.2603C1.25613 28.0768 0.711574 30.1599 0.762438 32.2714C0.813301 34.3829 1.45753 36.4374 2.62142 38.1999C3.78531 39.9624 5.42184 41.3616 7.34375 42.2375C5.39507 43.2822 3.75838 44.8251 2.60062 46.7089C1.44286 48.5926 0.805464 50.7497 0.753459 52.9601C0.701454 55.1706 1.2367 57.3553 2.30459 59.2914C3.37249 61.2274 4.93481 62.8456 6.8322 63.9808C8.72959 65.116 10.8941 65.7277 13.1051 65.7533C15.316 65.7789 17.4941 65.2177 19.4173 64.1268C21.3405 63.0359 22.94 61.4543 24.0525 59.5435C25.165 57.6328 25.7507 55.4611 25.75 53.25V39.0594C26.8 40.3674 28.1291 41.4241 29.6402 42.1521C31.1513 42.8802 32.806 43.2611 34.4833 43.267C36.1606 43.273 37.818 42.9038 39.3342 42.1865C40.8504 41.4692 42.187 40.422 43.2462 39.1214C44.3054 37.8209 45.0604 36.2999 45.4559 34.6699C45.8515 33.0399 45.8775 31.3421 45.5322 29.7008C45.1868 28.0594 44.4788 26.516 43.46 25.1836C42.4411 23.8512 41.1372 22.7634 39.6438 22ZM43.25 12C43.25 14.3206 42.3281 16.5462 40.6872 18.1872C39.0462 19.8281 36.8206 20.75 34.5 20.75H25.75V3.25H34.5C36.8206 3.25 39.0462 4.17187 40.6872 5.81282C42.3281 7.45376 43.25 9.67936 43.25 12ZM25.75 23.25H27.4406C26.8193 23.7526 26.2526 24.3193 25.75 24.9406V23.25ZM3.25 12C3.25 9.67936 4.17187 7.45376 5.81282 5.81282C7.45376 4.17187 9.67936 3.25 12 3.25H23.25V20.75H12C9.67936 20.75 7.45376 19.8281 5.81282 18.1872C4.17187 16.5462 3.25 14.3206 3.25 12ZM23.25 53.25C23.25 55.2278 22.6635 57.1612 21.5647 58.8057C20.4659 60.4502 18.9041 61.7319 17.0768 62.4888C15.2496 63.2457 13.2389 63.4437 11.2991 63.0579C9.35929 62.672 7.57746 61.7196 6.17893 60.3211C4.78041 58.9225 3.828 57.1407 3.44215 55.2009C3.05629 53.2611 3.25433 51.2504 4.0112 49.4232C4.76808 47.5959 6.04981 46.0341 7.6943 44.9353C9.33879 43.8365 11.2722 43.25 13.25 43.25H23.25V53.25ZM23.25 40.75H12C9.67936 40.75 7.45376 39.8281 5.81282 38.1872C4.17187 36.5462 3.25 34.3206 3.25 32C3.25 29.6794 4.17187 27.4538 5.81282 25.8128C7.45376 24.1719 9.67936 23.25 12 23.25H23.25V40.75ZM34.5 40.75C32.7694 40.75 31.0777 40.2368 29.6388 39.2754C28.1998 38.3139 27.0783 36.9473 26.4161 35.3485C25.7538 33.7496 25.5805 31.9903 25.9181 30.293C26.2558 28.5956 27.0891 27.0365 28.3128 25.8128C29.5365 24.5891 31.0956 23.7557 32.793 23.4181C34.4903 23.0805 36.2496 23.2538 37.8485 23.9161C39.4473 24.5783 40.8139 25.6998 41.7754 27.1388C42.7368 28.5777 43.25 30.2694 43.25 32C43.25 34.3206 42.3281 36.5462 40.6872 38.1872C39.0462 39.8281 36.8206 40.75 34.5 40.75Z" fill="#27292F"/>
</svg>
