<svg width="80" height="80" viewBox="0 0 80 80" fill="none" xmlns="http://www.w3.org/2000/svg">
<path d="M39.9975 3.95576e-07C45.2505 -0.000738365 50.4522 1.03329 55.3055 3.04303C60.1588 5.05277 64.5688 7.99885 68.2834 11.713C71.9981 15.4272 74.9447 19.8368 76.9551 24.6899C78.9654 29.543 80.0001 34.7445 80 39.9975C80.0013 62.0891 62.0938 79.9987 40.0025 80C17.9112 80.0013 0.00125007 62.0938 6.67646e-08 40.0025C-0.00124993 18.1319 17.55 0.36 39.3359 0.0056254L39.9975 3.95576e-07ZM54.6897 4.51969C40.3406 -1.42406 23.8231 1.86188 12.8409 12.845C1.85875 23.8281 -1.42625 40.345 4.51813 54.6947C10.4628 69.0437 24.4656 78.3994 39.9975 78.3981C61.2047 78.3969 78.3956 61.2047 78.3956 39.9975C78.3956 24.4656 69.0394 10.4631 54.6897 4.51969ZM36.3697 15.7919C33.0213 17.7003 31.1375 20.8156 31.1375 23.4303C31.1375 25.7781 31.9312 26.6553 32.7619 26.8647L32.8509 26.8847L32.8956 26.8928L32.9847 26.9053C33.0889 26.9172 33.1917 26.9204 33.2931 26.915L33.3797 26.9088L33.465 26.8991L33.5069 26.8928L33.59 26.8781L33.6712 26.8603L33.7509 26.8397L33.8284 26.8166L33.9034 26.7909L33.9762 26.7634L34.0459 26.7337L34.1131 26.7025L34.1769 26.6694L34.2372 26.6353L34.2941 26.6L34.3472 26.5641L34.3966 26.5275L34.4197 26.5088V50.7734C34.5467 51.0782 34.7115 51.3658 34.9103 51.6294C35.2456 52.0931 35.6871 52.4696 36.198 52.7274C36.7088 52.9852 37.2741 53.1167 37.8463 53.1109C38.6369 53.1109 39.5006 52.8297 40.315 52.4425L40.5175 52.3438C40.6519 52.2762 40.7843 52.2068 40.9147 52.1353L41.1084 52.0269L41.2988 51.9163L41.4844 51.8044L41.6656 51.6919L41.8419 51.5794L42.0128 51.4669L42.1778 51.3556L42.4131 51.1922L42.6331 51.0347L42.8356 50.8847L43.02 50.745L43.1844 50.6169L43.4478 50.4053L43.6722 50.2166V30.5684C43.6722 28.5694 42.1659 26.1531 40.6575 25.3291L40.8019 25.3088L40.9728 25.2903L41.1516 25.2766L41.3078 25.2678L41.4813 25.2622L41.6709 25.2606L41.8053 25.2622L41.9466 25.2662L42.0931 25.2731L42.245 25.2831L42.4019 25.2966L42.5634 25.3137C42.6178 25.3202 42.673 25.3274 42.7291 25.3353L42.8981 25.3609C42.9269 25.3655 42.9555 25.3704 42.9841 25.3756L43.1581 25.4084C43.9188 25.5616 44.7553 25.8606 45.5197 26.4188L45.6072 26.4844C46.012 25.9885 46.4428 25.5144 46.8978 25.0641C49.4072 22.5988 51.8459 21.0169 54.1503 19.9631L54.4566 19.8256C55 19.5873 55.5524 19.3699 56.1125 19.1741L56.4078 19.0728C56.5059 19.0399 56.6037 19.0078 56.7012 18.9766L56.9928 18.8847C57.0897 18.8551 57.1862 18.826 57.2825 18.7975L57.57 18.7147L57.7134 18.675L57.9978 18.5981L58.2809 18.5253L58.5616 18.4559L58.84 18.3903L59.1166 18.3278L59.3906 18.2684L59.6628 18.2116L59.9325 18.1578L60.2003 18.1066L60.5972 18.0341L60.4334 18.1684L60.2647 18.3119L60.0453 18.5047L59.8506 18.6812L59.6325 18.8841L59.4753 19.0334L59.3097 19.1944L59.1359 19.3662L58.955 19.5494L58.7675 19.7431L58.6719 19.8441L58.4756 20.0534C58.3767 20.1609 58.2757 20.2722 58.1728 20.3872L57.9663 20.6222C57.8621 20.7422 57.7569 20.8658 57.6506 20.9931L57.4372 21.2525C55.5112 23.6294 53.4175 27.1509 53.4175 31.2306L53.4203 32.7619L53.4397 36.5425L53.5622 50.5697C54.9478 51.9006 56.6794 51.5447 58.5241 50.38L58.7188 50.2547L58.9141 50.1234C58.9795 50.0786 59.0448 50.033 59.11 49.9866L59.3069 49.8444L59.5041 49.6975L59.7022 49.5453L59.9003 49.3891L60.0991 49.2278L60.2984 49.0628L60.4978 48.8938L60.6975 48.7209L60.8975 48.5447L61.0972 48.3653L61.2972 48.1828L61.5972 47.9041L61.8972 47.6197L62.1963 47.3306L62.3953 47.1359L62.7928 46.7416L63.2272 46.3034L63.6591 45.8625L63.7666 45.7522C63.7523 45.8208 63.7375 45.8894 63.7222 45.9578L63.6722 46.1756C63.6545 46.2504 63.6357 46.3269 63.6159 46.405L63.5534 46.6456L63.5194 46.77L63.4469 47.0266L63.3675 47.2931L63.2809 47.5694C62.0056 51.5497 58.5416 58.3028 50.2287 62.2309L46.3037 57.8156L39.6813 64.4781C35.9102 64.4274 32.202 63.5054 28.8464 61.7841C25.4907 60.0628 22.5786 57.5889 20.3375 54.5556C21.042 54.7748 21.7696 54.9115 22.5056 54.9628L22.5638 54.9634L22.6806 54.9622L22.7391 54.9603L22.8556 54.9538L22.9722 54.9428C23.9016 54.8397 24.7647 54.3237 24.7647 52.7553V34.7875C24.7806 34.3336 24.6918 33.8821 24.5052 33.4681C24.3185 33.054 24.039 32.6885 23.6884 32.3999C23.3377 32.1112 22.9253 31.9072 22.4831 31.8036C22.0409 31.7 21.5808 31.6996 21.1384 31.8025L21.0416 31.8269C19.9513 32.0763 18.9391 33.2041 18.0866 34.5547L17.9378 34.7953C17.8891 34.8759 17.8407 34.9573 17.7928 35.0394L17.6509 35.2869L17.5128 35.5363L17.3784 35.7872L17.2478 36.0391L17.1209 36.2903L16.9984 36.5406L16.8797 36.7894L16.71 37.1572L16.6025 37.3978L16.4494 37.7497L16.3066 38.0888L16.1747 38.4122L16.0538 38.7169L15.9444 39.0006L15.8169 39.3412L15.7113 39.6331L15.5684 40.0444L15.5222 40.1841C15.4879 36.6488 16.2242 33.1484 17.6796 29.9264C19.1351 26.7044 21.2749 23.8382 23.9503 21.5269C27.6044 18.4303 31.1909 16.9537 34.2147 16.2184L34.5153 16.1472L34.8122 16.0809L35.1047 16.0191L35.2494 15.99L35.5359 15.9344L35.6778 15.9084L35.9578 15.8591L36.2334 15.8134L36.3697 15.7919Z" fill="#27292F"/>
</svg>
