<svg width="110" height="91" viewBox="0 0 110 91" fill="none" xmlns="http://www.w3.org/2000/svg">
<rect width="90.2439" height="90.2439" rx="45.122" fill="#75BBFD"/>
<path d="M37.124 44.2632V47.0405H27.0069V57.1576H24.2297V47.0405H14.1126V44.2632H24.2297V34.1462H27.0069V44.2632H37.124ZM44.6494 44.6104H47.9226C47.9226 52.595 51.4437 55.6697 58.6348 55.6697C65.2307 55.6697 68.0575 52.7933 68.0575 47.7348C68.0575 42.7258 65.3795 40.8413 60.9161 40.8413H56.0559V38.0641H60.9161C65.3795 38.0641 67.5616 36.2291 67.5616 32.212C67.5616 28.1454 65.2307 25.2689 58.6348 25.2689C51.4437 25.2689 48.4185 28.3437 48.4185 34.3445H45.1453C45.1453 26.8063 49.6584 22.4917 58.6348 22.4917C67.0161 22.4917 70.8348 26.5584 70.8348 31.7161C70.8348 35.7828 68.851 38.2624 64.3876 38.9567V39.9486C68.851 40.8909 71.3307 43.073 71.3307 48.2307C71.3307 54.3803 67.0161 58.447 58.6348 58.447C49.6584 58.447 44.6494 54.1324 44.6494 44.6104ZM91.9198 22.4917C101.491 22.4917 106.401 30.2779 106.401 40.4445C106.401 50.6608 101.491 58.447 91.9198 58.447C82.2986 58.447 77.3889 50.6608 77.3889 40.4445C77.3889 30.2779 82.2986 22.4917 91.9198 22.4917ZM91.9198 25.2689C84.332 25.2689 80.662 31.7657 80.662 40.4445C80.662 44.0153 81.2572 47.1893 82.497 49.7185L99.458 28.4429C97.623 26.4096 95.1433 25.2689 91.9198 25.2689ZM91.9198 55.6697C99.5076 55.6697 103.128 49.173 103.128 40.4445C103.128 36.8738 102.533 33.6998 101.293 31.1706L84.332 52.4462C86.1669 54.4795 88.6962 55.6697 91.9198 55.6697Z" fill="white"/>
</svg>
