<svg width="80" height="80" viewBox="0 0 80 80" fill="none" xmlns="http://www.w3.org/2000/svg">
<g clip-path="url(#clip0_2923_2193)">
<circle cx="40" cy="40" r="40" fill="#525459"/>
<path d="M13.4285 38.4429H11.0462V30.2996H14.6613L17.5244 35.3862L20.4337 30.2996H23.9995V38.4429H21.6295V32.6396L18.3134 38.4429H16.7139L13.4285 32.6396V38.4429Z" fill="white"/>
<path d="M27.5221 38.4429H24.8501L29.2295 30.2996H32.3545L36.6538 38.4429H33.9664L33.1897 37.0877H28.3018L27.5221 38.4429ZM29.2295 35.1272H32.3114L30.755 32.2451L29.2295 35.1272Z" fill="white"/>
<path d="M43.9579 30.2996C45.2276 30.2996 46.0937 30.4923 46.5529 30.8748C47.0121 31.2573 47.2432 31.956 47.2432 32.9679C47.2432 33.6726 47.1415 34.1936 46.935 34.5369C46.7316 34.8802 46.3864 35.1091 45.9057 35.2265C46.331 35.3289 46.6484 35.5096 46.858 35.7686C47.0706 36.0276 47.1754 36.3619 47.1754 36.7745V38.4429H44.7253V37.2022C44.7253 36.8799 44.6513 36.6601 44.5003 36.5396C44.3524 36.4191 44.0565 36.3589 43.6189 36.3589H39.9668V38.4429H37.5105V30.2996H43.9579ZM43.8654 32.3294H39.9699V34.3201H43.8654C44.1921 34.3201 44.4202 34.2418 44.5527 34.0882C44.6852 33.9346 44.7499 33.6545 44.7499 33.2479C44.7499 32.9257 44.6791 32.6938 44.5404 32.5492C44.3986 32.4017 44.1736 32.3294 43.8654 32.3294Z" fill="white"/>
<path d="M52.3191 33.3232L55.5304 30.2996H58.7849L54.4456 34.3201L59.352 38.4429H55.9465L52.316 35.3651H51.2867V38.4429H48.8396V30.2996H51.2867V33.3232H52.3191Z" fill="white"/>
<path d="M60.0146 35.7355L62.4339 35.7295V35.8771C62.4339 36.1842 62.5079 36.389 62.6558 36.4974C62.8037 36.6059 63.1119 36.6601 63.5835 36.6601H66.6592C66.9612 36.6601 67.177 36.6089 67.3064 36.5035C67.4359 36.4011 67.5006 36.2264 67.5006 35.9855C67.5006 35.7415 67.4266 35.5669 67.2756 35.4615C67.1277 35.356 66.8071 35.2838 66.314 35.2476L62.4678 35.1603C61.5063 35.1302 60.856 34.9465 60.5139 34.6031C60.1749 34.2598 60.0054 33.6364 60.0054 32.7329C60.0054 32.2661 60.0516 31.8807 60.141 31.5795C60.2304 31.2783 60.3752 31.0254 60.5725 30.8236C60.8067 30.5977 61.1118 30.4381 61.4878 30.3417C61.8638 30.2484 62.4802 30.2002 63.3308 30.2002H67.0691C67.9968 30.2002 68.6625 30.3719 69.0693 30.7152C69.4761 31.0585 69.6795 31.6126 69.6795 32.3836C69.6795 32.4348 69.6795 32.489 69.6764 32.5462C69.6733 32.6034 69.6672 32.6998 69.6579 32.8293H67.2972V32.7962C67.2972 32.5251 67.2294 32.3234 67.0938 32.1878C66.9582 32.0523 66.7578 31.9861 66.4866 31.9861H63.6636C63.1921 31.9861 62.8839 32.0343 62.7329 32.1276C62.5819 32.221 62.5079 32.3896 62.5079 32.6245C62.5079 32.8594 62.5757 33.0251 62.7113 33.1305C62.8469 33.2329 63.0996 33.3021 63.4664 33.3292L67.4944 33.3955C68.4128 33.4196 69.06 33.6304 69.436 34.0249C69.812 34.4194 70 35.091 70 36.0427C70 36.6089 69.9322 37.0455 69.7935 37.3557C69.6548 37.6659 69.4237 37.931 69.097 38.1478C68.8813 38.2863 68.5885 38.3857 68.2187 38.4459C67.8488 38.5062 67.3126 38.5363 66.613 38.5363H63.3492C62.0086 38.5363 61.1149 38.3827 60.6618 38.0785C60.2088 37.7744 59.9838 37.2052 59.9838 36.374C59.9838 36.3258 59.9869 36.2475 59.9931 36.136C59.9992 36.0246 60.0054 35.8951 60.0146 35.7355Z" fill="white"/>
<path d="M19.1177 44.6378V44.6137C19.1177 44.2192 19.0006 43.9511 18.7664 43.8066C18.5322 43.662 18.0052 43.5897 17.1854 43.5897H15.6876C14.8092 43.5897 14.2483 43.6982 14.0018 43.912C13.7552 44.1258 13.6319 44.5806 13.6319 45.2702V46.4568C13.6319 47.0711 13.7706 47.4958 14.0511 47.7247C14.3285 47.9535 14.8801 48.068 15.6999 48.068H17.1854C17.922 48.068 18.4305 47.9987 18.7109 47.8632C18.9883 47.7277 19.1301 47.4928 19.1301 47.1615C19.1301 47.1163 19.1239 47.038 19.1085 46.9326C19.1085 46.9206 19.1085 46.9115 19.1085 46.9025H16.0851V45.1769H21.7774V47.9806C21.7774 48.7847 21.4846 49.3539 20.8991 49.6912C20.3135 50.0285 19.2934 50.2002 17.8387 50.2002H14.9787C14.1004 50.2002 13.4532 50.152 13.0341 50.0556C12.6149 49.9593 12.2636 49.7966 11.9708 49.5678C11.6318 49.2967 11.3852 48.9624 11.2311 48.5679C11.077 48.1734 11 47.6735 11 47.0681V44.7402C11 43.5175 11.2866 42.6622 11.8568 42.1803C12.4269 41.6955 13.4624 41.4545 14.9664 41.4545H17.8357C18.7633 41.4545 19.4444 41.4967 19.8851 41.581C20.3258 41.6653 20.671 41.8069 20.9237 42.0056C21.1888 42.2134 21.3829 42.4905 21.5093 42.8399C21.6357 43.1892 21.6973 43.6289 21.6973 44.1559C21.6973 44.2824 21.6973 44.3788 21.6942 44.448C21.6911 44.5173 21.688 44.5806 21.685 44.6378H19.1177Z" fill="white"/>
<path d="M30.1263 41.5599C31.4608 41.5599 32.3669 41.7617 32.8476 42.1622C33.3284 42.5628 33.5719 43.2946 33.5719 44.3577C33.5719 45.0955 33.464 45.6437 33.2514 46.002C33.0356 46.3604 32.6781 46.6013 32.1727 46.7248C32.6165 46.8332 32.9493 47.02 33.1712 47.294C33.3931 47.5651 33.5041 47.9174 33.5041 48.3481V50.0978H30.9338V48.7968C30.9338 48.4595 30.8567 48.2276 30.6995 48.1041C30.5424 47.9776 30.2342 47.9144 29.775 47.9144H25.9472V50.0978H23.3708V41.5599H30.1263ZM30.0308 43.6861H25.9472V45.7732H30.0308C30.3729 45.7732 30.6132 45.6918 30.7519 45.5292C30.8906 45.3666 30.9584 45.0745 30.9584 44.6498C30.9584 44.3125 30.8845 44.0686 30.7396 43.915C30.5886 43.7644 30.3544 43.6861 30.0308 43.6861Z" fill="white"/>
<path d="M39.2056 50.2002C38.2225 50.2002 37.5044 50.155 37.0483 50.0647C36.5921 49.9743 36.2223 49.8207 35.9357 49.6039C35.6121 49.36 35.3779 49.0377 35.2361 48.6432C35.0943 48.2487 35.0204 47.7217 35.0204 47.0681V44.7402C35.0204 44.0264 35.0913 43.4602 35.2361 43.0416C35.3779 42.626 35.6121 42.2948 35.9357 42.0508C36.2192 41.837 36.5952 41.6834 37.0637 41.5931C37.5321 41.5027 38.244 41.4545 39.1964 41.4545H42.2197C43.1751 41.4545 43.8901 41.4997 44.3647 41.5931C44.8362 41.6834 45.2122 41.837 45.4927 42.0508C45.804 42.2917 46.0351 42.62 46.18 43.0356C46.3248 43.4512 46.3988 43.9843 46.3988 44.6348V47.0139C46.3988 47.6705 46.3248 48.2065 46.18 48.6161C46.0351 49.0257 45.807 49.3539 45.4927 49.6009C45.2092 49.8177 44.8362 49.9743 44.374 50.0617C43.9117 50.152 43.1936 50.1972 42.2228 50.1972H39.2056V50.2002ZM39.899 48.068H41.5324C42.4416 48.068 43.0426 47.9535 43.3415 47.7217C43.6374 47.4898 43.7884 47.0621 43.7884 46.4357V45.225C43.7884 44.5986 43.6405 44.168 43.3415 43.9391C43.0426 43.7072 42.4416 43.5928 41.5324 43.5928H39.8898C38.9621 43.5928 38.355 43.7102 38.0684 43.9421C37.7818 44.174 37.6369 44.6197 37.6369 45.2732V46.4598C37.6369 47.0742 37.7879 47.4988 38.093 47.7277C38.392 47.9535 38.996 48.068 39.899 48.068Z" fill="white"/>
<path d="M47.9212 41.5599H50.4854V46.6224C50.4854 47.2006 50.6148 47.5861 50.8737 47.7849C51.1326 47.9806 51.6935 48.08 52.5595 48.08H54.0172C54.7353 48.08 55.2192 47.9746 55.4626 47.7668C55.7061 47.559 55.8294 47.1766 55.8294 46.6224V41.5599H58.3997V47.4325C58.3997 48.4384 58.1347 49.1522 57.6015 49.5708C57.0683 49.9924 56.1468 50.2002 54.837 50.2002H51.9678C50.4268 50.2002 49.3697 49.9984 48.7903 49.5979C48.2109 49.1973 47.9243 48.4746 47.9243 47.4295V41.5599H47.9212Z" fill="white"/>
<path d="M66.5513 41.5599C67.1246 41.5599 67.5807 41.587 67.9197 41.6443C68.2618 41.6985 68.5484 41.7918 68.7857 41.9153C69.211 42.1412 69.5192 42.4755 69.7134 42.9212C69.9045 43.3669 70 43.9813 70 44.7643C70 45.9328 69.8089 46.761 69.4237 47.2458C69.0384 47.7307 68.3912 47.9716 67.4759 47.9716H62.6743V50.0978H60.0978V41.5599H66.5513ZM66.462 43.6861H62.6774V45.8484H66.462C66.8041 45.8484 67.0444 45.7641 67.1831 45.5925C67.3218 45.4238 67.3896 45.1196 67.3896 44.683C67.3896 44.3366 67.3157 44.0806 67.1708 43.924C67.0198 43.7674 66.7856 43.6861 66.462 43.6861Z" fill="white"/>
</g>
<defs>
<clipPath id="clip0_2923_2193">
<rect width="80" height="80" fill="white"/>
</clipPath>
</defs>
</svg>
