<svg width="80" height="72" viewBox="0 0 80 72" fill="none" xmlns="http://www.w3.org/2000/svg">
<path d="M43.9833 41.998C42.7962 42.7863 41.4019 43.2047 39.9769 43.2C39.0328 43.1989 38.0981 43.0118 37.2264 42.6492C36.3547 42.2867 35.5629 41.756 34.8964 41.0873C34.2299 40.4186 33.7018 39.6252 33.3421 38.7523C32.9824 37.8793 32.7983 36.9441 32.8003 36C32.8003 34.575 33.2232 33.182 34.0154 31.9975C34.8076 30.8129 35.9334 29.8901 37.2504 29.3459C38.5674 28.8016 40.0163 28.6604 41.4136 28.9401C42.8109 29.2198 44.0938 29.9079 45.0998 30.9172C46.1058 31.9265 46.7896 33.2116 47.0648 34.6098C47.34 36.008 47.194 37.4564 46.6455 38.7716C46.0969 40.0868 45.1704 41.2097 43.9833 41.998Z" fill="#27292F"/>
<path fill-rule="evenodd" clip-rule="evenodd" d="M63.201 22.6404C64.0654 22.8915 64.9237 23.1626 65.7759 23.4537C74.4155 26.4352 79.9986 31.1034 80.002 35.9365C80.002 40.968 74.0305 45.8911 64.8643 48.936C64.3787 49.096 63.8826 49.251 63.376 49.401C63.5571 50.1298 63.7171 50.8442 63.856 51.5442C65.6676 60.7088 64.2726 68.2418 59.9811 70.7317C55.8296 73.1416 49.1149 70.7734 42.3152 64.9103C41.573 64.2714 40.8508 63.6126 40.1486 62.9337C39.5931 63.4748 39.0375 63.9887 38.482 64.4753C31.459 70.6251 24.2543 73.175 19.9595 70.6934C15.8013 68.2902 14.5013 61.2788 16.1679 52.4458C16.3502 51.4814 16.5596 50.5276 16.7963 49.5843C16.0674 49.3754 15.3452 49.1493 14.6297 48.906C5.80838 45.8844 0.00195312 40.9013 0.00195312 35.9315C0.00195312 31.1217 5.41173 26.4836 13.8714 23.5254C14.8493 23.1857 15.8369 22.8744 16.8329 22.5921C16.614 21.711 16.4168 20.826 16.2413 19.9372C14.4864 10.9492 15.7246 3.76785 19.8911 1.34962C24.2376 -1.17361 31.479 1.53461 38.7037 7.96435C39.1592 8.36433 39.6036 8.7732 40.037 9.19096C40.6869 8.5621 41.3508 7.95101 42.0285 7.3577C48.9216 1.34462 55.7546 -1.17027 59.9211 1.24296C64.2726 3.75785 65.5476 11.3975 63.5976 20.8805C63.4765 21.4704 63.3443 22.0571 63.201 22.6404ZM58.2179 4.2095C55.7013 2.75623 50.1815 4.78948 44.2768 9.94093H44.2734C43.6468 10.4887 43.0346 11.0526 42.4369 11.6325C44.8787 14.2962 47.1377 17.122 49.1982 20.0905C52.7973 20.4167 56.3706 20.9823 59.8945 21.7838C60.0233 21.2538 60.1433 20.7221 60.2544 20.1888C61.9377 12.0008 60.8961 5.75777 58.2179 4.2095ZM25.8909 44.1895C25.102 42.824 24.3459 41.4413 23.6226 40.0413C22.606 42.4579 21.736 44.8328 21.0294 47.1194C23.465 47.6419 25.926 48.0385 28.4024 48.3077C27.5314 46.9555 26.6942 45.5828 25.8909 44.1895ZM23.6204 31.9814C24.3429 30.5843 25.0963 29.2039 25.8809 27.8402C26.6664 26.4747 27.4841 25.1286 28.3341 23.802C25.7975 24.1187 23.3643 24.537 21.0811 25.0486C21.7755 27.2935 22.6214 29.6183 23.6204 31.9814ZM28.8424 29.5518C27.6269 31.6639 26.4925 33.8183 25.4392 36.0148H25.4342C26.4842 38.1992 27.6219 40.3524 28.8474 42.4746C30.0729 44.5967 31.3762 46.6683 32.7573 48.6893C35.0888 48.841 37.5004 48.9193 40.0003 48.9193C42.5002 48.9193 44.9584 48.8276 47.3333 48.661C48.6766 46.6344 49.9543 44.5656 51.1665 42.4546C52.3887 40.3324 53.5353 38.1692 54.6063 35.9648C53.5208 33.7772 52.3714 31.6328 51.1582 29.5318C49.9449 27.4308 48.6599 25.3753 47.3033 23.3654C44.9251 23.1837 42.4702 23.0887 40.0053 23.0887C37.5404 23.0887 35.1005 23.1837 32.7206 23.3637C31.3495 25.3781 30.0568 27.4408 28.8424 29.5518ZM56.4446 39.918C55.7035 41.3524 54.9302 42.7685 54.1247 44.1662C53.3325 45.5428 52.5131 46.9027 51.6665 48.246C54.1753 47.9517 56.6669 47.5261 59.1312 46.9711C58.3573 44.5755 57.4606 42.2214 56.4446 39.918ZM54.1097 27.8218C54.9063 29.194 55.6735 30.5828 56.4113 31.9883C57.38 29.7333 58.235 27.4311 58.9728 25.0903C56.6779 24.5653 54.2297 24.1353 51.6781 23.812C52.5214 25.132 53.332 26.4686 54.1097 27.8218ZM44.7468 19.7772C43.2741 17.8005 41.7027 15.8992 40.0386 14.0808C38.437 15.8124 36.8454 17.7206 35.2905 19.7772C38.4448 19.6272 41.5969 19.6272 44.7468 19.7772ZM36.4438 10.5226C30.2057 4.9778 24.2876 2.7579 21.6111 4.31117C19.0978 5.76944 18.0995 11.5775 19.6078 19.2822C19.7711 20.1111 19.9545 20.9344 20.1578 21.7521C23.6766 20.9657 27.2429 20.409 30.834 20.0855C32.9144 17.1208 35.1893 14.2975 37.6437 11.6342C37.2437 11.2492 36.8421 10.8776 36.4438 10.5226ZM15.7346 45.6661C16.3846 45.8883 17.0429 46.0944 17.7095 46.2844C18.7994 42.7806 20.1182 39.3523 21.6577 36.0215C20.1363 32.7362 18.8336 29.3539 17.7579 25.8969C16.8324 26.1591 15.9146 26.4486 15.0047 26.7652C7.76163 29.2901 3.41848 33.0133 3.41848 35.9315C3.41848 37.3048 4.42177 38.9997 6.40169 40.698C8.61326 42.5929 11.8348 44.3328 15.7346 45.6661ZM27.2742 67.5152C30.0157 66.5436 33.1256 64.6153 36.2304 61.8954C36.7488 61.4404 37.2571 60.9705 37.7537 60.4822C35.2818 57.8019 32.9881 54.9626 30.8873 51.9825C27.2623 51.7059 23.6602 51.1831 20.1061 50.4176C19.8872 51.3064 19.6928 52.1953 19.5228 53.0841C18.0912 60.6371 19.1412 66.2686 21.6644 67.7269C22.8493 68.4118 24.8109 68.3868 27.2742 67.5152ZM35.3205 52.2525C36.8971 54.3357 38.5137 56.274 40.1336 58.0256C41.7976 56.1768 43.3663 54.2444 44.8334 52.2358C43.2435 52.3075 41.6302 52.3425 40.0003 52.3425C38.4126 52.3425 36.8526 52.3125 35.3205 52.2525ZM58.2662 67.7669C59.4511 67.0802 60.4094 65.3636 60.8861 62.7904C61.4161 59.9255 61.3011 56.2623 60.4994 52.2125C60.3739 51.5792 60.2294 50.9326 60.0661 50.2726C56.4979 51.079 52.8784 51.6386 49.2332 51.9475C47.1922 54.939 44.9522 57.7897 42.5285 60.4805C43.2068 61.1255 43.8735 61.7404 44.5401 62.3137C50.3532 67.3285 55.7446 69.2301 58.2662 67.7669ZM62.4427 46.1061C62.8993 45.9694 63.3493 45.8294 63.786 45.6844C71.704 43.0545 76.5821 39.0314 76.5821 35.9315C76.5821 33.0266 72.0656 29.2468 64.6626 26.6936C63.8976 26.4286 63.1027 26.1786 62.2844 25.9403C61.2116 29.36 59.911 32.704 58.3912 35.9498C59.9703 39.2395 61.3239 42.6328 62.4427 46.1061Z" fill="#27292F"/>
</svg>
