<svg width="64" height="78" viewBox="0 0 64 78" fill="none" xmlns="http://www.w3.org/2000/svg">
<path fill-rule="evenodd" clip-rule="evenodd" d="M8.85465 0.828501C8.67918 0.921196 8.45979 1.10537 8.36709 1.23772C8.27439 1.37007 6.50544 4.5305 4.43605 8.26094C2.36674 11.9914 0.543176 15.2612 0.383872 15.5272C-0.115693 16.361 -0.0954323 17.0352 0.447611 17.6537C0.687611 17.927 1.21787 18.1162 9.23083 20.7872L17.7586 23.6298L17.4662 23.9112C17.3053 24.066 13.7364 27.313 9.53518 31.1269C4.13274 36.0313 1.86083 38.1469 1.77431 38.354C1.62657 38.7076 1.61692 39.2211 1.75083 39.6053C1.82457 39.8169 3.78761 41.6487 9.5117 46.8473C13.7259 50.6746 17.3053 53.933 17.4662 54.0882L17.7586 54.3703L9.23083 57.2129C1.153 59.9055 0.689263 60.0712 0.442306 60.3524C0.0923934 60.7509 -0.0577801 61.2664 0.053959 61.685C0.132394 61.9788 7.97483 76.2025 8.36735 76.7629C8.46022 76.8955 8.68683 77.0808 8.87091 77.1748C9.20005 77.3427 9.48866 77.3455 26.4717 77.3492C41.7939 77.3525 43.7668 77.338 43.9948 77.2201C44.2751 77.0751 44.6413 76.6337 44.7336 76.3297C44.7657 76.2241 49.1015 67.8893 54.3687 57.808C63.6958 39.9564 63.9456 39.4659 63.9457 39.0001C63.9458 38.5342 63.7071 38.0649 54.792 21.0001C49.7575 11.3631 45.384 2.9892 45.073 2.39137C44.762 1.79354 44.4227 1.21267 44.319 1.1005C43.877 0.622762 45.0503 0.651892 26.4173 0.656066C9.52804 0.659805 9.16726 0.66337 8.85465 0.828501ZM10.4646 3.89137C10.4276 3.9512 9.02161 6.47502 7.34013 9.50007L4.28292 15.0001H15.6967H27.1106L32.8379 9.68763C35.9878 6.76572 38.7014 4.24181 38.868 4.07894L39.1709 3.78267H24.8513C13.4896 3.78267 10.518 3.80511 10.4646 3.89137ZM42.1272 5.33241C41.7907 5.6518 38.944 8.29772 35.8011 11.2123C32.6582 14.1268 30.0871 16.5334 30.0875 16.5602C30.0879 16.5868 30.2346 16.6937 30.4136 16.7975C30.5926 16.9014 36.9199 20.9205 44.4742 25.7289C52.0287 30.5374 58.2267 34.4545 58.2475 34.4335C58.2684 34.4127 58.2461 34.3457 58.198 34.2848C58.1499 34.2238 54.6748 27.5805 50.4757 19.5218C46.2766 11.4631 42.818 4.84311 42.79 4.81067C42.762 4.77824 42.4637 5.01302 42.1272 5.33241ZM11.4815 18.1957C11.4834 18.2315 13.4952 18.9243 15.9522 19.7352L20.4195 21.2095L21.353 20.3439C21.8664 19.8678 22.5905 19.2044 22.962 18.8696C23.3336 18.5348 23.6409 18.2315 23.6448 18.1957C23.6488 18.1599 20.9129 18.1305 17.5651 18.1305C14.2173 18.1305 11.4797 18.1599 11.4815 18.1957ZM28.8028 21.9609L28.826 24.4002L38.3912 28.0806C43.652 30.1048 47.976 31.741 47.9999 31.7165C48.0238 31.692 48.0042 31.6576 47.9564 31.6402C47.9086 31.6228 43.5958 28.8891 38.3725 25.5652C33.1491 22.2414 28.854 19.5218 28.8276 19.5218C28.8013 19.5218 28.7901 20.6195 28.8028 21.9609ZM24.6177 21.5917L23.7139 22.4395L24.6127 22.785C25.1071 22.975 25.5433 23.1435 25.5819 23.1595C25.6205 23.1755 25.652 22.6374 25.652 21.9638C25.652 21.2902 25.6227 20.7402 25.5868 20.7415C25.5509 20.7428 25.1148 21.1254 24.6177 21.5917ZM13.3477 31.8834C9.09118 35.7588 5.60857 38.9611 5.60857 38.9996C5.60857 39.0382 9.10222 42.2464 13.3723 46.1289L21.136 53.1881L23.3723 52.3284L25.6086 51.4687V39.0003V26.5319L23.3919 25.679C22.1727 25.21 21.1553 24.8287 21.131 24.8317C21.1067 24.8348 17.6042 28.0081 13.3477 31.8834ZM28.7825 39.0001C28.7825 49.6642 28.7902 50.2332 28.9347 50.1804C30.4529 49.6255 57.9129 39.0309 57.9129 39.0001C57.9129 38.9692 30.4529 28.3746 28.9347 27.8197C28.7902 27.7669 28.7825 28.3359 28.7825 39.0001ZM57.7281 43.8092C57.5069 43.962 51.1992 47.9805 43.7109 52.7392C36.2227 57.4979 30.0938 61.4121 30.0913 61.4375C30.0843 61.5092 42.6155 73.1274 42.7295 73.1548C42.7852 73.1683 42.9414 72.9531 43.077 72.6766C43.2544 72.3146 53.2027 53.22 58.1874 43.674C58.3 43.4581 58.1889 43.4909 57.7281 43.8092ZM47.8092 46.2632C47.784 46.2883 43.5026 47.9477 38.2947 49.9507L28.826 53.5923L28.8028 56.0354C28.7901 57.379 28.7987 58.4783 28.8217 58.4783C28.8866 58.4783 47.7655 46.4679 47.9098 46.3348C47.9799 46.2703 47.9961 46.2175 47.946 46.2175C47.896 46.2175 47.8344 46.2381 47.8092 46.2632ZM24.6159 55.1995L23.7102 55.5572L24.6159 56.4067C25.114 56.874 25.5509 57.2573 25.5868 57.2586C25.6227 57.2599 25.652 56.7131 25.652 56.0435C25.652 55.374 25.6227 54.8297 25.5868 54.834C25.5509 54.8383 25.114 55.0028 24.6159 55.1995ZM15.8512 58.29C13.4498 59.087 11.4835 59.7685 11.4816 59.8044C11.4776 59.8788 23.5103 59.8954 23.5847 59.821C23.627 59.7788 22.5837 58.7726 20.9442 57.2743C20.6745 57.0278 20.4006 56.8294 20.3355 56.8335C20.2705 56.8374 18.2525 57.4928 15.8512 58.29ZM7.36378 68.5435C9.05822 71.5925 10.4738 74.1165 10.5094 74.1525C10.5451 74.1885 17.0027 74.2081 24.8598 74.196L39.1452 74.174L33.1273 68.587L27.1095 63.0001H15.6962H4.28292L7.36378 68.5435Z" fill="#27292F"/>
</svg>
